<svg xmlns="http://www.w3.org/2000/svg" id="Calque_2" data-name="Calque 2" viewBox="0 0 113.81 137.24"><defs/><g id="Calque_1-2" data-name="Calque 1"><path fill="#00805e" stroke="#00805e" stroke-miterlimit="10" stroke-width=".75" d="M113.43 69.33c0 22.8-18.48 41.28-41.27 41.28-12.74 0-24.13-5.76-31.69-14.83-3.11-3.73-.71-9.41 4.13-9.77h.01c1.87-.14 3.74.58 4.94 2.04 5.38 6.5 13.52 10.63 22.61 10.63 16.21 0 29.35-13.14 29.35-29.35S88.37 39.98 72.16 39.98c-9.09 0-17.23 4.14-22.61 10.64-1.2 1.45-3.07 2.18-4.94 2.04h-.01c-4.84-.36-7.24-6.04-4.13-9.77 7.56-9.07 18.95-14.84 31.69-14.84 22.79 0 41.27 18.48 41.27 41.28Z"/><rect width="58.21" height="13" x="22.97" y="62.83" class="cls-2" rx="6.5" ry="6.5"/><path d="M14 68.83c0 27.97 21.16 51.2 48.31 54.44 3.51.42 6.13 3.41 6.13 6.95 0 4.17-3.62 7.46-7.76 6.97C26.57 133.13 0 103.96 0 68.83S26.58 4.53 60.68.48c4.14-.49 7.76 2.8 7.76 6.97 0 3.53-2.63 6.53-6.13 6.95C35.16 17.64 14 40.88 14 68.83Z" class="cls-2"/></g></svg>