<?xml version="1.0" encoding="UTF-8"?>
<svg id="Calque_2" data-name="Calque 2" xmlns="http://www.w3.org/2000/svg" viewBox="0 0 167.09 230.58">
  <defs>
    <style>
      .cls-1 {
        fill: none;
        stroke: #00ffc2;
        stroke-miterlimit: 10;
        stroke-width: 2px;
      }
    </style>
  </defs>
  <g id="Calque_1-2" data-name="Calque 1">
    <circle class="cls-1" cx="90.67" cy="46.37" r="45.37"/>
    <path class="cls-1" d="m56.92,229.53v.02s-41.66,0-41.66,0c0-26.74,2.59-60.91,15.61-86.51l1.85,6.11,2.34,7.81,2.35,7.8,2.34,7.79,2.36,7.8,2.35,7.79,2.34,7.8,2.35,7.79,2.87,7.62"/>
    <path class="cls-1" d="m79.66,229.55h86.43c0-49.13-10.63-123.36-75.97-123.36-18.22,0-32.09,5.65-42.61,14.86l23.41,77.71m20.78,16.92l-12.34-17.23,5.42-65.69h10.34l8.92,66.76-12.34,16.16Z"/>
    <path class="cls-1" d="m74,208.99l-.49.15-26.42-87.73c.14-.12.28-.25.42-.36l23.41,77.71,3.08,10.23Z"/>
    <polygon class="cls-1" points="104.04 199.52 91.7 215.68 79.36 198.45 84.78 132.76 95.12 132.76 104.04 199.52"/>
    <rect class="cls-1" x="56.57" y="33.07" width="26.61" height="26.61" rx="9.36" ry="9.36"/>
    <rect class="cls-1" x="96.91" y="33.07" width="26.61" height="26.61" rx="9.36" ry="9.36"/>
    <line class="cls-1" x1="83.18" y1="46.37" x2="96.91" y2="46.37"/>
    <g>
      <path class="cls-1" d="m73.51,209.14l-20.34,6.13-3.36-11.14-1.62-5.37-.74-2.43-2.34-7.79h0s-2.35-7.8-2.35-7.8l-2.36-7.81-2.34-7.78h0s-2.35-7.8-2.35-7.8h0s-2.34-7.8-2.34-7.8l-2.36-7.8-2.35-7.79-2.34-7.8-2.35-7.8-1.84-6.11c.37-.73.75-1.45,1.15-2.18l-1.67.5-2.34-7.8-2.35-7.79h0s-2.34-7.8-2.34-7.8l-2.36-7.81-2.34-7.79-2.35-7.79h0s-2.34-7.8-2.34-7.8l-3.94-13.04,20.85-6.29,16.24,53.95,9.17,30.44,23.41,77.71"/>
      <path class="cls-1" d="m23.27,110.07c-.4.72-.78,1.45-1.15,2.17l-.51-1.68,1.66-.5Z"/>
      <line class="cls-1" x1="5.18" y1="55.99" x2="15.6" y2="52.85"/>
      <line class="cls-1" x1="7.53" y1="63.79" x2="12.74" y2="62.22"/>
      <line class="cls-1" x1="9.87" y1="71.58" x2="20.3" y2="68.44"/>
      <line class="cls-1" x1="12.22" y1="79.38" x2="17.43" y2="77.81"/>
      <line class="cls-1" x1="14.57" y1="87.18" x2="24.99" y2="84.04"/>
      <line class="cls-1" x1="16.92" y1="94.97" x2="22.13" y2="93.4"/>
      <line class="cls-1" x1="19.27" y1="102.77" x2="29.69" y2="99.63"/>
      <line class="cls-1" x1="26.83" y1="108.99" x2="23.27" y2="110.07"/>
      <line class="cls-1" x1="23.96" y1="118.36" x2="34.39" y2="115.22"/>
      <line class="cls-1" x1="26.31" y1="126.16" x2="31.53" y2="124.59"/>
      <line class="cls-1" x1="28.66" y1="133.96" x2="39.09" y2="130.82"/>
      <line class="cls-1" x1="31.01" y1="141.75" x2="36.22" y2="140.18"/>
      <line class="cls-1" x1="33.36" y1="149.55" x2="43.78" y2="146.41"/>
      <line class="cls-1" x1="35.71" y1="157.35" x2="40.92" y2="155.78"/>
      <line class="cls-1" x1="38.06" y1="165.14" x2="48.48" y2="162"/>
      <line class="cls-1" x1="40.4" y1="172.94" x2="45.62" y2="171.37"/>
      <line class="cls-1" x1="42.75" y1="180.74" x2="53.18" y2="177.6"/>
      <line class="cls-1" x1="45.1" y1="188.53" x2="50.31" y2="186.96"/>
      <line class="cls-1" x1="47.45" y1="196.33" x2="57.87" y2="193.19"/>
      <line class="cls-1" x1="49.8" y1="204.13" x2="55.01" y2="202.56"/>
    </g>
    <path class="cls-1" d="m82.4,112.89h15.1c1.2,0,2.04,1.2,1.62,2.33l-3.08,8.35c-.25.68-.9,1.13-1.62,1.13h-8.69c-.71,0-1.35-.43-1.61-1.09l-3.33-8.35c-.45-1.14.38-2.37,1.61-2.37Z"/>
    <polygon class="cls-1" points="104.04 199.52 91.7 215.68 79.36 198.45 84.78 132.76 95.12 132.76 104.04 199.52"/>
    <line class="cls-1" x1="56.98" y1="229.47" x2="80.56" y2="229.58"/>
  </g>
</svg>