<svg xmlns="http://www.w3.org/2000/svg" id="Calque_2" data-name="Calque 2" viewBox="0 0 156.7 259.02"><defs><style>.cls-1{fill:none;stroke:#00ffc2;stroke-miterlimit:10;stroke-width:2px}</style></defs><g id="Calque_1-2" data-name="Calque 1"><path d="M77.28 199.72c-8.9-1.85-4.02-12.95-.85-16.87.3-.36.63-.72 1.09-.97.5-.27 1.14-.37 1.76-.4 3.37-.17 6.62 1.46 7.87 3.72 1.32 2.37.63 5.07.64 7.66 0 1.86.3 3.94-1.38 5.37-1.34 1.14-3.51 1.49-5.54 1.62-1.21.07-2.44.1-3.6-.14ZM92.14 218.09c1.09 2.25 2.23 4.56 2.32 7.02.1 2.44-1.12 5.09-3.51 5.96-1.11.41-2.35.4-3.54.23-8.71-1.31-14.57-11.61-8.5-18.11.65-.7 1.44-1.34 2.4-1.58 1.25-.3 2.59.1 3.82.53 1.71.58 3.44 1.22 4.72 2.44 1.02.98 1.66 2.26 2.29 3.51ZM106.46 167.7c-.38 1.14-1.11 2.1-1.82 3.06-.8 1.04-1.59 2.09-2.39 3.14-.5.67-1.04 1.36-1.9 1.65-1.05.34-2.39.01-3.62-.38-1.89-.6-3.79-1.35-5.44-2.54-1.65-1.19-3.01-2.9-3.27-4.63-.72-4.9 7.48-8.64 11.17-10.28.44-.2.91-.38 1.45-.33.54.06 1.08.36 1.56.68 3.43 2.32 5.3 6.55 4.26 9.64Z" class="cls-1"/><path d="M94.46 225.11c.1 2.44-1.12 5.09-3.51 5.96-1.11.41-2.35.4-3.54.23-8.71-1.31-14.57-11.61-8.5-18.11.65-.7 1.44-1.34 2.4-1.58 1.25-.3 2.59.1 3.82.53 1.71.58 3.44 1.22 4.72 2.44 1.02.98 1.66 2.26 2.29 3.51 1.09 2.25 2.23 4.56 2.32 7.02ZM87.8 192.87c0 1.86.3 3.94-1.38 5.37-1.34 1.14-3.51 1.49-5.54 1.62-1.21.07-2.44.1-3.6-.14-8.9-1.85-4.02-12.95-.85-16.87.3-.36.63-.72 1.09-.97.5-.27 1.14-.37 1.76-.4 3.37-.17 6.62 1.46 7.87 3.72 1.32 2.37.63 5.07.64 7.66ZM106.46 167.7c-.38 1.14-1.11 2.1-1.82 3.06-.8 1.04-1.59 2.09-2.39 3.14-.5.67-1.04 1.36-1.9 1.65-1.05.34-2.39.01-3.62-.38-1.89-.6-3.79-1.35-5.44-2.54-1.65-1.19-3.01-2.9-3.27-4.63-.72-4.9 7.48-8.64 11.17-10.28.44-.2.91-.38 1.45-.33.54.06 1.08.36 1.56.68 3.43 2.32 5.3 6.55 4.26 9.64Z" class="cls-1"/><path d="M87.8 192.87c0 1.86.3 3.94-1.38 5.37-1.34 1.14-3.51 1.49-5.54 1.62-1.21.07-2.44.1-3.6-.14-8.9-1.85-4.02-12.95-.85-16.87.3-.36.63-.72 1.09-.97.5-.27 1.14-.37 1.76-.4 3.37-.17 6.62 1.46 7.87 3.72 1.32 2.37.63 5.07.64 7.66ZM78.91 213.18c.65-.7 1.44-1.34 2.4-1.58 1.25-.3 2.59.1 3.82.53 1.71.58 3.44 1.22 4.72 2.44 1.02.98 1.66 2.26 2.29 3.51 1.09 2.25 2.23 4.56 2.32 7.02.1 2.44-1.12 5.09-3.51 5.96-1.11.41-2.35.4-3.54.23-8.71-1.31-14.57-11.61-8.5-18.11ZM96.72 175.17c-1.89-.6-3.79-1.35-5.44-2.54-1.65-1.19-3.01-2.9-3.27-4.63-.72-4.9 7.48-8.64 11.17-10.28.44-.2.91-.38 1.45-.33.54.06 1.08.36 1.56.68 3.43 2.32 5.3 6.55 4.26 9.64-.38 1.14-1.11 2.1-1.82 3.06-.8 1.04-1.59 2.09-2.39 3.14-.5.67-1.04 1.36-1.9 1.65-1.05.34-2.39.01-3.62-.38ZM138.21 185.26c.51-1.11 1.15-2.16 1.86-3.16 1.53 3.89 2.87 7.9 4.05 12.01-4.72-1.56-8.56-3.17-5.91-8.85ZM128.76 199.98c.61 2.7.95 5.53.09 8.03-.67 1.9-1.98 3.48-3.43 4.89-.58.58-1.24 1.15-2.08 1.31-1.28.24-2.62-.53-3.78-1.26-1.21-.78-2.42-1.61-3.4-2.64-1.46-1.58-2.32-3.58-2.9-5.59-.36-1.26-.63-2.59-.47-3.84.17-1.32.78-2.52 1.51-3.61 3.37-5.03 9.38-7.72 13.45-.26.51.94.78 1.96 1.01 2.97Z" class="cls-1"/><path d="M128.84 208.01c-.67 1.9-1.98 3.48-3.43 4.89-.58.58-1.24 1.15-2.08 1.31-1.28.24-2.62-.53-3.78-1.26-1.21-.78-2.42-1.61-3.4-2.64-1.46-1.58-2.32-3.58-2.9-5.59-.36-1.26-.63-2.59-.47-3.84.17-1.32.78-2.52 1.51-3.61 3.37-5.03 9.38-7.72 13.45-.26.51.94.78 1.96 1.01 2.97.61 2.7.95 5.53.09 8.03ZM121.79 74.83c0 25.07-20.31 45.38-45.38 45.38S31.04 99.9 31.04 74.83c0-9.47 2.89-18.25 7.86-25.51 6.11 1.19 16.05 1.12 30.29 3.7 18.45 3.33 37.69 14.77 50.33 19.4.78.28 1.53.54 2.25.77.03.54.03 1.09.03 1.65Z" class="cls-1"/><path d="M144.12 194.11c-4.72-1.56-8.56-3.17-5.91-8.85.51-1.11 1.15-2.16 1.86-3.16 5.91-8.37 17.28-13.08 15.43-24.87-1.08-6.95-6.45-12.72-12.88-15.59-6.41-2.87-13.71-3.17-20.69-2.27-4.92.63-9.66 1.53-14.21 2.79-11.24 3.08-21.35 8.31-30.05 16.9-6.74 6.65-13.37 18.06-15.96 27.16-1.78 6.2-1.93 12.73-1.79 19.17.14 6.41.61 13 3.34 18.8 3.91 8.29 11.84 13.8 19.41 18.93 2.81 1.9 12.99 3.94 16.43 4.26 11.17 1.07 37.96-13.2 50.14-28.55 4.05-5.1 6.48-10.33 6.2-15.15-.38-6.31-6.34-7.92-11.33-9.56Zm-67.69-11.26c.3-.36.63-.72 1.09-.97.5-.27 1.14-.37 1.76-.4 3.37-.17 6.62 1.46 7.87 3.72 1.32 2.37.63 5.07.64 7.66 0 1.86.3 3.94-1.38 5.37-1.34 1.14-3.51 1.49-5.54 1.62-1.21.07-2.44.1-3.6-.14-8.9-1.85-4.02-12.95-.85-16.87Zm14.53 48.21c-1.11.41-2.35.4-3.54.23-8.71-1.31-14.57-11.61-8.5-18.11.65-.7 1.44-1.34 2.4-1.58 1.25-.3 2.59.1 3.82.53 1.71.58 3.44 1.22 4.72 2.44 1.02.98 1.66 2.26 2.29 3.51 1.09 2.25 2.23 4.56 2.32 7.02.1 2.44-1.12 5.09-3.51 5.96Zm15.51-63.36c-.38 1.14-1.11 2.1-1.82 3.06-.8 1.04-1.59 2.09-2.39 3.14-.5.67-1.04 1.36-1.9 1.65-1.05.34-2.39.01-3.62-.38-1.89-.6-3.79-1.35-5.44-2.54-1.65-1.19-3.01-2.9-3.27-4.63-.72-4.9 7.48-8.64 11.17-10.28.44-.2.91-.38 1.45-.33.54.06 1.08.36 1.56.68 3.43 2.32 5.3 6.55 4.26 9.64Zm22.38 40.31c-.67 1.9-1.98 3.48-3.43 4.89-.58.58-1.24 1.15-2.08 1.31-1.28.24-2.62-.53-3.78-1.26-1.21-.78-2.42-1.61-3.4-2.64-1.46-1.58-2.32-3.58-2.9-5.59-.36-1.26-.63-2.59-.47-3.84.17-1.32.78-2.52 1.51-3.61 3.37-5.03 9.38-7.72 13.45-.26.51.94.78 1.96 1.01 2.97.61 2.7.95 5.53.09 8.03Zm5.17-52.39c-.43 2.46-2.84 4.02-5.14 4.95-.1.04-.2.07-.3.11-4.49 1.69-9.15 1.09-11.8-3.45-1.38-2.37-.55-6.04 1.62-7.69.75-.58 1.65-.92 2.69-.88 2.8.1 5.68-.2 8.34.7 2.66.88 5.07 3.47 4.59 6.27Z" class="cls-1"/><path d="M113.26 204.71c-.36-1.26-.63-2.59-.47-3.84.17-1.32.78-2.52 1.51-3.61 3.37-5.03 9.38-7.72 13.45-.26.51.94.78 1.96 1.01 2.97.61 2.7.95 5.53.09 8.03-.67 1.9-1.98 3.48-3.43 4.89-.58.58-1.24 1.15-2.08 1.31-1.28.24-2.62-.53-3.78-1.26-1.21-.78-2.42-1.61-3.4-2.64-1.46-1.58-2.32-3.58-2.9-5.59Z" class="cls-1"/><path d="M151.82 258.02H1c0-49.15 8.74-123.38 74.86-123.38 12.54 0 23.05 2.73 31.86 7.5-11.24 3.08-21.35 8.31-30.05 16.9-6.74 6.65-13.37 18.06-15.96 27.16-1.78 6.2-1.93 12.73-1.79 19.17.14 6.41.61 13 3.34 18.8 3.91 8.29 11.84 13.8 19.41 18.93 2.81 1.9 12.99 3.94 16.43 4.26 11.17 1.07 37.96-13.2 50.14-28.55 1.93 13.6 2.57 27.15 2.57 39.2ZM133.53 69.94c-1.01 5.02-5.33 5.29-11.77 3.24-.71-.23-1.46-.48-2.25-.77-12.63-4.63-31.88-16.07-50.33-19.4-14.24-2.57-24.18-2.5-30.29-3.7a27.3 27.3 0 0 1-1.92-.45c-5.54-1.58-6.86-5.05-4.49-14.92C35.89 19.81 63.99-.33 85.19 11.21 86.48 5.4 87.78.31 90.78 1.08c3.45.87 1.31 7.25-.18 13.91.78.68 1.53 1.42 2.29 2.22 36.1 38.47 43.45 38.7 40.63 52.73Z" class="cls-1"/></g></svg>