<?xml version="1.0" encoding="UTF-8"?>
<svg id="Calque_2" data-name="Calque 2" xmlns="http://www.w3.org/2000/svg" viewBox="0 0 158.34 247.31">
  <defs>
    <style>
      .cls-1 {
        fill: none;
        stroke: #00ffc2;
        stroke-miterlimit: 10;
        stroke-width: 2px;
      }
    </style>
  </defs>
  <g id="Calque_1-2" data-name="Calque 1">
    <g>
      <circle class="cls-1" cx="81.93" cy="46.37" r="45.37"/>
      <path class="cls-1" d="m48.19,229.55H6.52c0-26.75,2.59-60.91,15.61-86.51l1.85,6.11,2.35,7.8,2.35,7.8,2.35,7.79,2.36,7.8,2.35,7.79,2.35,7.8,2.35,7.79,2.36,7.8,2.35,7.8,2.35,7.79.74,2.43Z"/>
      <path class="cls-1" d="m157.34,229.55h-86.43l-32.57-108.14c10.57-9.42,24.57-15.22,43.04-15.22,65.33,0,75.97,74.23,75.97,123.36Z"/>
      <rect class="cls-1" x="47.83" y="33.07" width="26.61" height="26.61" rx="9.36" ry="9.36"/>
      <rect class="cls-1" x="88.17" y="33.07" width="26.61" height="26.61" rx="9.36" ry="9.36"/>
      <line class="cls-1" x1="74.44" y1="46.37" x2="88.17" y2="46.37"/>
      <g>
        <path class="cls-1" d="m74,239.79l-20.84,6.28-3.35-11.14-1.62-5.37-.74-2.43-2.35-7.79-2.35-7.8-2.36-7.8-2.35-7.79-2.35-7.8-2.35-7.79-2.36-7.8-2.35-7.79-2.35-7.8-2.35-7.8-1.85-6.11c.37-.72.75-1.45,1.15-2.17l-1.66.5-2.35-7.8-2.35-7.79-2.35-7.8-2.36-7.8-2.35-7.79-2.35-7.8-2.35-7.79-3.94-13.05,20.85-6.28,16.24,53.95,32.57,108.14,3.08,10.23Z"/>
        <path class="cls-1" d="m23.28,140.87c-.4.72-.78,1.45-1.15,2.17l-.51-1.68,1.66-.5Z"/>
        <line class="cls-1" x1="5.18" y1="86.79" x2="15.6" y2="83.65"/>
        <line class="cls-1" x1="7.53" y1="94.58" x2="12.74" y2="93.01"/>
        <line class="cls-1" x1="9.88" y1="102.38" x2="20.3" y2="99.24"/>
        <line class="cls-1" x1="12.22" y1="110.18" x2="17.44" y2="108.61"/>
        <line class="cls-1" x1="14.57" y1="117.97" x2="25" y2="114.83"/>
        <line class="cls-1" x1="16.92" y1="125.77" x2="22.13" y2="124.2"/>
        <line class="cls-1" x1="19.27" y1="133.57" x2="29.69" y2="130.43"/>
        <line class="cls-1" x1="26.83" y1="139.79" x2="23.28" y2="140.87"/>
        <line class="cls-1" x1="23.97" y1="149.16" x2="34.39" y2="146.02"/>
        <line class="cls-1" x1="26.31" y1="156.96" x2="31.53" y2="155.39"/>
        <line class="cls-1" x1="28.66" y1="164.75" x2="39.09" y2="161.61"/>
        <line class="cls-1" x1="31.01" y1="172.55" x2="36.22" y2="170.98"/>
        <line class="cls-1" x1="33.36" y1="180.35" x2="43.78" y2="177.21"/>
        <line class="cls-1" x1="35.71" y1="188.14" x2="40.92" y2="186.57"/>
        <line class="cls-1" x1="38.06" y1="195.94" x2="48.48" y2="192.8"/>
        <line class="cls-1" x1="40.41" y1="203.74" x2="45.62" y2="202.17"/>
        <line class="cls-1" x1="42.75" y1="211.53" x2="53.18" y2="208.39"/>
        <line class="cls-1" x1="45.1" y1="219.33" x2="50.31" y2="217.76"/>
        <line class="cls-1" x1="47.45" y1="227.13" x2="57.87" y2="223.99"/>
        <line class="cls-1" x1="49.8" y1="234.92" x2="55.01" y2="233.35"/>
      </g>
      <path class="cls-1" d="m73.66,112.89h15.1c1.2,0,2.04,1.2,1.62,2.33l-3.08,8.35c-.25.68-.9,1.13-1.62,1.13h-8.69c-.71,0-1.35-.43-1.61-1.09l-3.33-8.35c-.45-1.14.38-2.37,1.61-2.37Z"/>
      <polygon class="cls-1" points="95.29 199.52 82.96 215.68 70.62 198.45 76.04 132.75 86.38 132.75 95.29 199.52"/>
    </g>
  </g>
</svg>