<?xml version="1.0" standalone="no"?>
<!DOCTYPE svg PUBLIC "-//W3C//DTD SVG 20010904//EN"
 "http://www.w3.org/TR/2001/REC-SVG-20010904/DTD/svg10.dtd">
<svg version="1.0" xmlns="http://www.w3.org/2000/svg"
 width="1096.000000pt" height="1096.000000pt" viewBox="0 0 1096.000000 1096.000000"
 preserveAspectRatio="xMidYMid meet">
<metadata>
Created by potrace 1.14, written by Peter Selinger 2001-2017
</metadata>
<g transform="translate(0.000000,1096.000000) scale(0.100000,-0.100000)"
fill="#000000" stroke="none">
<path d="M5787 10924 c-1 -2 -25 -6 -52 -9 -28 -4 -61 -8 -75 -10 -14 -2 -43
-6 -65 -10 -23 -3 -52 -8 -65 -10 -14 -3 -40 -8 -59 -11 -41 -7 -68 -12 -101
-19 -14 -3 -38 -7 -55 -10 -50 -7 -315 -74 -402 -101 -46 -14 -89 -27 -95 -28
-14 -3 -38 -12 -76 -27 -13 -5 -32 -9 -42 -9 -11 0 -20 -4 -20 -8 0 -5 -6 -9
-12 -9 -26 0 -327 -116 -463 -178 -30 -14 -59 -25 -64 -25 -6 0 -11 -5 -11
-11 0 -5 -4 -7 -10 -4 -5 3 -10 1 -10 -6 0 -7 -3 -10 -6 -7 -6 7 -301 -141
-345 -173 -15 -10 -35 -22 -45 -26 -27 -11 -168 -95 -174 -103 -3 -4 -19 -14
-36 -23 -17 -9 -64 -39 -105 -66 -41 -28 -82 -57 -93 -64 -10 -6 -47 -33 -82
-59 -35 -27 -68 -48 -74 -48 -5 0 -10 -4 -10 -10 0 -5 -17 -21 -37 -34 -21
-13 -47 -32 -58 -42 -12 -11 -41 -35 -65 -54 -56 -43 -63 -49 -98 -80 -15 -14
-57 -50 -92 -80 -93 -80 -375 -362 -455 -455 -38 -44 -77 -89 -87 -100 -35
-39 -69 -81 -111 -135 -23 -30 -44 -57 -47 -60 -36 -33 -360 -507 -360 -525 0
-3 -13 -26 -30 -50 -16 -24 -35 -54 -40 -67 -6 -13 -29 -54 -50 -93 -41 -72
-150 -291 -190 -380 -54 -120 -63 -141 -66 -154 -1 -8 -9 -28 -17 -45 -19 -39
-31 -70 -51 -126 -8 -25 -21 -58 -27 -75 -7 -16 -13 -36 -15 -43 -1 -8 -6 -21
-10 -30 -4 -9 -8 -20 -9 -24 -2 -5 -4 -10 -5 -13 -1 -3 -3 -8 -4 -12 -1 -5
-16 -53 -33 -108 -28 -87 -68 -230 -93 -331 -4 -18 -11 -37 -15 -44 -5 -8 -4
-11 2 -7 6 4 4 -12 -4 -35 -8 -24 -16 -56 -18 -73 -2 -16 -6 -41 -9 -55 -6
-23 -31 -165 -40 -220 -3 -14 -5 -25 -6 -25 0 0 -3 -18 -5 -40 -2 -22 -7 -60
-10 -85 -3 -25 -8 -65 -11 -90 -2 -25 -7 -61 -10 -80 -18 -120 -26 -713 -11
-905 4 -55 10 -121 12 -147 2 -26 6 -69 10 -95 4 -27 8 -67 10 -89 3 -23 7
-55 10 -70 2 -16 7 -49 11 -74 3 -25 7 -52 9 -60 3 -8 7 -32 11 -54 3 -21 8
-48 11 -60 3 -11 6 -28 7 -36 6 -37 29 -142 47 -211 10 -42 20 -85 22 -95 1
-10 6 -25 10 -31 5 -7 6 -13 2 -13 -3 0 1 -16 9 -35 8 -19 13 -35 10 -35 -2 0
2 -16 10 -35 8 -19 12 -35 9 -35 -3 0 0 -7 7 -15 7 -8 10 -15 7 -15 -3 0 5
-31 18 -69 13 -38 21 -72 17 -75 -3 -3 0 -6 6 -6 7 0 12 -6 12 -14 0 -15 71
-218 95 -271 7 -16 23 -55 35 -85 25 -63 37 -90 116 -255 31 -66 57 -122 57
-125 -1 -3 8 -17 18 -32 10 -14 19 -29 19 -32 0 -4 20 -43 45 -86 25 -44 57
-102 72 -128 14 -26 29 -49 33 -52 4 -3 13 -20 21 -37 8 -18 17 -33 21 -33 5
0 8 -7 8 -15 0 -8 5 -15 10 -15 6 0 10 -5 10 -10 0 -12 187 -291 225 -336 6
-7 21 -27 35 -45 40 -53 183 -233 194 -245 6 -6 34 -37 61 -68 98 -113 242
-263 361 -376 96 -91 308 -274 386 -332 20 -15 43 -35 52 -44 9 -8 16 -13 16
-10 0 3 9 -2 19 -11 10 -10 38 -31 62 -48 23 -16 62 -45 86 -62 24 -18 47 -33
52 -33 5 0 11 -3 13 -7 3 -9 126 -93 134 -93 3 0 20 -10 37 -22 46 -33 189
-118 198 -118 4 0 14 -6 21 -13 26 -24 373 -198 518 -260 127 -54 314 -128
332 -131 7 -2 24 -7 38 -13 14 -6 63 -23 110 -38 47 -15 92 -30 100 -33 8 -3
22 -6 30 -8 14 -3 40 -10 175 -50 31 -9 58 -14 62 -11 3 4 12 2 19 -3 6 -6 20
-12 30 -14 72 -14 174 -36 185 -40 13 -5 50 -12 109 -21 14 -2 39 -7 55 -10
17 -4 44 -9 60 -11 17 -2 44 -5 60 -8 17 -2 55 -8 85 -12 96 -14 256 -10 285
8 6 3 26 9 45 13 66 14 179 96 242 175 110 138 149 319 105 490 -16 62 -50
141 -72 167 -5 7 -19 24 -30 39 -61 81 -192 173 -270 190 -69 14 -145 27 -175
30 -19 1 -35 3 -35 4 0 1 -13 3 -30 5 -16 2 -41 6 -55 9 -14 2 -38 7 -55 10
-16 2 -55 10 -85 16 -30 6 -66 13 -79 16 -27 5 -97 23 -211 52 -165 42 -532
175 -643 232 -22 11 -45 20 -53 20 -8 0 -14 5 -14 10 0 6 -6 10 -12 10 -20 0
-249 120 -343 179 -27 17 -58 34 -67 37 -10 4 -18 10 -18 15 0 5 -4 9 -10 9
-9 0 -72 39 -97 60 -7 5 -15 10 -18 10 -3 0 -33 20 -68 45 -34 25 -73 53 -86
62 -14 10 -37 28 -52 41 -15 12 -32 22 -38 22 -6 0 -11 4 -11 8 0 5 -21 24
-47 42 -25 19 -62 49 -81 67 -18 18 -36 33 -39 33 -3 0 -24 18 -46 39 -23 21
-60 56 -82 76 -83 76 -163 156 -242 242 -83 90 -92 99 -152 173 -19 24 -41 48
-48 56 -7 7 -13 17 -13 23 0 6 -4 11 -8 11 -5 0 -24 21 -42 48 -19 26 -36 49
-39 52 -10 9 -80 111 -148 215 -36 55 -74 112 -84 127 -11 15 -19 30 -19 32 0
3 -17 34 -38 68 -20 35 -44 77 -52 93 -8 17 -20 37 -26 45 -7 8 -14 20 -15 25
-1 6 -29 66 -61 135 -32 69 -63 134 -68 145 -15 33 -92 229 -96 245 -2 8 -17
56 -34 105 -17 50 -33 97 -35 105 -3 8 -14 49 -25 90 -37 132 -48 174 -53 207
-3 17 -7 35 -10 40 -3 4 -8 30 -11 57 -4 27 -9 52 -11 55 -3 7 -14 67 -21 121
-2 19 -6 46 -9 60 -7 33 -15 103 -30 245 -14 140 -20 500 -9 640 2 39 6 95 9
125 2 30 4 55 5 55 1 0 3 18 4 40 3 44 14 136 21 175 3 14 7 39 10 55 3 17 7
41 10 55 3 14 7 39 10 55 6 32 12 64 21 105 3 14 7 36 10 50 3 14 21 84 40
155 20 72 40 144 44 160 7 28 73 216 116 330 11 28 22 52 27 53 4 2 7 10 7 17
0 17 72 178 83 186 5 3 8 8 7 10 -5 8 43 109 51 109 5 0 8 3 7 8 -5 17 195
364 213 370 5 2 9 8 9 14 0 33 271 388 425 557 72 79 302 307 348 344 21 18
49 41 61 52 12 11 42 36 66 55 24 19 48 40 54 45 6 6 36 28 66 50 30 22 57 42
60 46 11 13 260 179 270 179 5 0 10 4 10 8 0 4 19 18 43 30 23 13 80 45 127
72 94 55 315 165 400 200 30 12 71 29 90 38 59 26 312 118 353 128 9 2 25 6
35 8 9 2 29 9 45 15 15 6 38 13 50 15 12 3 57 14 99 25 76 20 316 69 373 77
17 2 46 6 66 8 20 2 41 5 45 8 5 2 27 6 49 7 22 2 45 7 51 12 6 5 13 6 17 3
10 -10 129 39 181 74 99 68 178 169 222 287 45 121 33 325 -24 413 -8 12 -11
22 -8 22 15 0 -61 99 -118 153 -67 65 -191 131 -266 142 -46 7 -169 13 -173 9z"/>
<path d="M6430 8739 c-41 -4 -104 -10 -139 -14 -35 -3 -66 -7 -70 -9 -3 -2
-28 -7 -56 -11 -40 -5 -187 -35 -296 -60 -9 -2 -49 -14 -90 -26 -41 -13 -76
-23 -79 -24 -3 0 -30 -9 -60 -20 -30 -11 -58 -20 -62 -21 -5 -1 -10 -3 -13 -4
-3 -1 -8 -3 -12 -5 -5 -1 -17 -5 -28 -10 -11 -4 -58 -24 -105 -43 -106 -43
-376 -177 -390 -193 -3 -3 -16 -12 -30 -19 -89 -46 -398 -267 -408 -292 -2 -4
-8 -8 -13 -8 -22 0 -356 -330 -426 -421 -43 -56 -105 -164 -98 -171 2 -2 -2
-25 -10 -51 -14 -45 -14 -164 -1 -218 42 -176 166 -312 336 -369 66 -22 200
-31 265 -17 105 23 210 89 290 183 57 67 201 213 260 263 116 99 355 261 384
261 6 0 11 4 11 8 0 13 214 111 336 155 75 27 247 76 293 83 14 2 37 7 51 10
14 3 39 8 55 11 17 2 41 6 55 8 64 11 207 19 325 19 119 0 301 -11 314 -18 3
-2 29 -6 56 -10 28 -3 66 -10 85 -14 19 -5 38 -9 43 -10 4 -1 8 -2 10 -3 1 0
13 -2 27 -5 42 -7 233 -66 262 -81 15 -7 31 -14 35 -14 23 -4 70 -24 188 -81
103 -49 149 -76 265 -153 95 -64 118 -80 168 -123 15 -13 43 -35 62 -50 54
-42 186 -178 268 -277 76 -92 222 -305 222 -324 0 -6 5 -11 12 -11 6 0 8 -3 5
-6 -4 -4 2 -19 12 -33 60 -84 191 -425 215 -561 2 -14 5 -25 6 -25 2 0 5 -17
19 -90 10 -58 13 -76 30 -213 19 -152 2 -471 -34 -652 -57 -289 -172 -574
-327 -809 -26 -41 -48 -77 -48 -82 0 -4 -3 -9 -8 -11 -4 -1 -38 -42 -75 -91
-133 -171 -326 -350 -518 -480 -90 -61 -288 -173 -299 -170 -3 1 -13 -6 -24
-15 -10 -9 -20 -16 -22 -14 -2 1 -21 -5 -42 -14 -20 -9 -68 -27 -107 -40 -38
-14 -77 -28 -85 -31 -25 -10 -159 -46 -215 -58 -82 -18 -186 -36 -240 -42 -71
-8 -463 -8 -520 0 -22 3 -58 8 -80 11 -22 3 -51 8 -65 11 -14 3 -41 8 -60 11
-29 5 -74 16 -160 39 -80 21 -120 34 -132 41 -7 5 -19 9 -26 10 -59 9 -406
177 -433 210 -6 8 -16 14 -21 14 -9 0 -159 102 -184 125 -6 5 -40 34 -75 63
-63 52 -183 171 -289 288 -106 117 -233 176 -375 175 -82 0 -235 -37 -255 -61
-3 -3 -21 -16 -40 -27 -35 -22 -130 -114 -130 -127 0 -3 -10 -23 -23 -44 -40
-65 -62 -149 -61 -242 1 -126 20 -194 82 -285 43 -63 186 -221 281 -310 29
-27 68 -64 86 -82 18 -17 36 -29 39 -26 3 4 6 1 6 -4 0 -6 35 -39 78 -73 42
-33 88 -70 102 -81 14 -11 37 -28 53 -37 15 -9 27 -20 27 -24 0 -4 4 -8 9 -8
4 0 42 -22 82 -50 41 -27 80 -50 87 -50 6 0 12 -4 12 -9 0 -4 21 -19 48 -32
26 -13 49 -27 52 -31 11 -14 359 -178 390 -183 3 0 14 -6 25 -12 17 -9 234
-84 258 -89 4 -1 8 -2 10 -4 1 -1 9 -3 17 -5 8 -2 35 -8 60 -15 176 -45 215
-53 300 -65 19 -3 46 -7 60 -10 14 -3 45 -8 70 -10 25 -2 59 -6 76 -9 73 -14
514 -27 514 -16 0 3 24 5 53 6 68 1 240 18 293 29 12 3 39 7 60 10 38 6 50 8
104 19 14 3 36 7 50 10 22 4 51 11 85 20 6 1 19 5 30 9 11 3 31 8 45 11 39 6
296 94 390 132 84 35 330 153 340 164 3 3 25 16 50 29 48 26 187 113 207 131
7 5 16 10 22 10 5 0 11 3 13 8 2 4 21 19 43 34 58 40 229 178 233 189 2 5 8 9
13 9 11 0 264 251 328 325 68 80 246 319 287 387 21 35 42 65 46 66 4 2 8 7 8
12 0 5 23 47 50 95 28 48 50 93 50 100 0 7 3 15 8 17 7 3 62 113 62 123 0 3 6
19 15 35 16 32 85 199 89 215 2 12 45 143 53 165 10 27 51 178 59 220 2 14 11
52 18 85 8 33 18 85 21 115 4 30 9 64 12 75 5 21 6 32 19 170 19 194 7 628
-21 780 -10 57 -17 100 -21 130 -3 17 -8 41 -11 55 -4 14 -8 32 -9 40 -1 8
-13 60 -28 115 -14 55 -28 111 -32 125 -3 14 -9 34 -14 45 -5 11 -20 54 -33
95 -23 68 -52 145 -80 210 -6 14 -11 27 -11 30 -4 18 -128 262 -174 340 -59
102 -167 267 -189 288 -7 7 -13 16 -13 20 0 4 -14 23 -30 42 -16 19 -33 40
-37 45 -110 145 -298 339 -453 469 -52 44 -96 83 -98 88 -2 4 -10 8 -18 8 -8
0 -14 3 -14 8 0 4 -17 18 -38 32 -20 14 -39 27 -42 31 -11 13 -190 129 -200
129 -5 0 -10 5 -10 10 0 6 -7 10 -15 10 -8 0 -15 5 -15 10 0 6 -4 10 -10 10
-5 0 -44 20 -86 45 -41 25 -78 45 -81 45 -3 0 -46 20 -97 44 -141 68 -216 99
-378 155 -65 22 -118 38 -118 35 0 -4 -6 -2 -12 4 -7 5 -26 12 -43 15 -16 3
-55 12 -85 20 -30 8 -73 18 -95 23 -22 4 -42 8 -45 9 -10 2 -182 31 -247 40
-124 19 -555 27 -683 14z"/>
<path d="M3266 5943 c-1 -1 -24 -5 -52 -8 -51 -7 -177 -52 -182 -67 -2 -4 -9
-8 -16 -8 -16 0 -116 -95 -150 -143 -54 -75 -96 -214 -91 -302 1 -24 15 -125
20 -145 1 -3 15 -35 32 -71 65 -140 227 -263 378 -287 53 -8 3738 -8 3791 1
59 9 68 11 74 19 3 3 14 8 25 10 11 1 22 5 25 8 3 3 22 14 43 24 100 51 194
167 232 287 65 206 14 400 -144 548 -34 31 -131 92 -148 93 -4 0 -16 4 -26 10
-47 25 -212 43 -234 25 -7 -5 -13 -6 -13 -1 0 5 -42 8 -93 7 -50 -2 -99 -3
-107 -3 -8 0 -69 1 -135 3 -66 2 -126 -1 -132 -6 -7 -5 -13 -6 -13 -1 0 5 -42
8 -93 7 -50 -2 -99 -3 -107 -3 -8 0 -69 1 -135 3 -66 2 -126 -1 -132 -6 -7 -5
-13 -6 -13 -1 0 5 -42 8 -93 7 -50 -2 -99 -3 -107 -3 -8 0 -69 1 -135 3 -66 2
-126 -1 -132 -6 -7 -5 -13 -6 -13 -1 0 5 -42 8 -93 7 -50 -2 -99 -3 -107 -3
-8 0 -51 1 -95 3 -44 2 -86 -1 -92 -6 -7 -5 -13 -6 -13 -1 0 11 -130 11 -147
1 -7 -5 -13 -5 -13 0 0 10 -131 10 -147 0 -7 -5 -13 -5 -13 0 0 10 -131 10
-147 0 -7 -5 -13 -5 -13 0 0 10 -131 10 -147 0 -7 -5 -13 -5 -13 0 0 10 -131
10 -147 0 -7 -5 -13 -5 -13 0 0 10 -131 10 -147 0 -7 -5 -13 -5 -13 0 0 10
-131 10 -147 0 -7 -5 -13 -5 -13 0 0 10 -131 10 -147 0 -7 -5 -13 -5 -13 0 0
10 -131 10 -147 0 -7 -5 -13 -5 -13 0 0 10 -131 10 -147 0 -7 -5 -13 -5 -13 0
0 7 -117 12 -124 6z"/>
</g>
</svg>
